<mxfile host="app.diagrams.net" modified="2023-02-11T07:45:42.582Z" agent="5.0 (Windows NT 6.1; Win64; x64) AppleWebKit/537.36 (KHTML, like Gecko) Chrome/109.0.0.0 Safari/537.36 OPR/95.0.0.0" etag="EOuTGYMoIXtH9M8wl7f-" version="20.8.20" type="github">
  <diagram name="Page-1" id="pzxp_7yDh-rzsTz8S-7Q">
    <mxGraphModel dx="1074" dy="613" grid="1" gridSize="10" guides="1" tooltips="1" connect="1" arrows="1" fold="1" page="1" pageScale="1" pageWidth="1700" pageHeight="1100" math="0" shadow="0">
      <root>
        <mxCell id="0" />
        <mxCell id="1" parent="0" />
        <mxCell id="TqRLrZdrlxEsfHvl0GsB-48" style="edgeStyle=orthogonalEdgeStyle;rounded=0;orthogonalLoop=1;jettySize=auto;html=1;exitX=0.5;exitY=1;exitDx=0;exitDy=0;entryX=0.5;entryY=0;entryDx=0;entryDy=0;" edge="1" parent="1" source="TqRLrZdrlxEsfHvl0GsB-31" target="TqRLrZdrlxEsfHvl0GsB-32">
          <mxGeometry relative="1" as="geometry" />
        </mxCell>
        <mxCell id="TqRLrZdrlxEsfHvl0GsB-31" value="KHO" style="rounded=0;whiteSpace=wrap;html=1;" vertex="1" parent="1">
          <mxGeometry x="206" y="40" width="120" height="60" as="geometry" />
        </mxCell>
        <mxCell id="TqRLrZdrlxEsfHvl0GsB-49" style="edgeStyle=orthogonalEdgeStyle;rounded=0;orthogonalLoop=1;jettySize=auto;html=1;exitX=0.5;exitY=1;exitDx=0;exitDy=0;entryX=0.5;entryY=0;entryDx=0;entryDy=0;" edge="1" parent="1" source="TqRLrZdrlxEsfHvl0GsB-32" target="TqRLrZdrlxEsfHvl0GsB-33">
          <mxGeometry relative="1" as="geometry" />
        </mxCell>
        <mxCell id="TqRLrZdrlxEsfHvl0GsB-71" style="edgeStyle=orthogonalEdgeStyle;rounded=0;orthogonalLoop=1;jettySize=auto;html=1;exitX=0;exitY=0.5;exitDx=0;exitDy=0;entryX=1;entryY=0.5;entryDx=0;entryDy=0;" edge="1" parent="1" source="TqRLrZdrlxEsfHvl0GsB-32" target="TqRLrZdrlxEsfHvl0GsB-58">
          <mxGeometry relative="1" as="geometry" />
        </mxCell>
        <mxCell id="TqRLrZdrlxEsfHvl0GsB-32" value="Chá»©a" style="rhombus;whiteSpace=wrap;html=1;" vertex="1" parent="1">
          <mxGeometry x="206" y="160" width="120" height="60" as="geometry" />
        </mxCell>
        <mxCell id="TqRLrZdrlxEsfHvl0GsB-50" style="edgeStyle=orthogonalEdgeStyle;rounded=0;orthogonalLoop=1;jettySize=auto;html=1;exitX=0.5;exitY=1;exitDx=0;exitDy=0;entryX=0.5;entryY=0;entryDx=0;entryDy=0;" edge="1" parent="1" source="TqRLrZdrlxEsfHvl0GsB-33" target="TqRLrZdrlxEsfHvl0GsB-34">
          <mxGeometry relative="1" as="geometry" />
        </mxCell>
        <mxCell id="TqRLrZdrlxEsfHvl0GsB-72" style="edgeStyle=orthogonalEdgeStyle;rounded=0;orthogonalLoop=1;jettySize=auto;html=1;exitX=0.25;exitY=0;exitDx=0;exitDy=0;entryX=1;entryY=0.5;entryDx=0;entryDy=0;" edge="1" parent="1" source="TqRLrZdrlxEsfHvl0GsB-33" target="TqRLrZdrlxEsfHvl0GsB-60">
          <mxGeometry relative="1" as="geometry" />
        </mxCell>
        <mxCell id="TqRLrZdrlxEsfHvl0GsB-73" style="edgeStyle=orthogonalEdgeStyle;rounded=0;orthogonalLoop=1;jettySize=auto;html=1;exitX=0;exitY=0.25;exitDx=0;exitDy=0;" edge="1" parent="1" source="TqRLrZdrlxEsfHvl0GsB-33" target="TqRLrZdrlxEsfHvl0GsB-61">
          <mxGeometry relative="1" as="geometry" />
        </mxCell>
        <mxCell id="TqRLrZdrlxEsfHvl0GsB-74" style="edgeStyle=orthogonalEdgeStyle;rounded=0;orthogonalLoop=1;jettySize=auto;html=1;exitX=0;exitY=0.5;exitDx=0;exitDy=0;entryX=1;entryY=0.5;entryDx=0;entryDy=0;" edge="1" parent="1" source="TqRLrZdrlxEsfHvl0GsB-33" target="TqRLrZdrlxEsfHvl0GsB-64">
          <mxGeometry relative="1" as="geometry" />
        </mxCell>
        <mxCell id="TqRLrZdrlxEsfHvl0GsB-75" style="edgeStyle=orthogonalEdgeStyle;rounded=0;orthogonalLoop=1;jettySize=auto;html=1;exitX=0;exitY=1;exitDx=0;exitDy=0;entryX=1;entryY=0.5;entryDx=0;entryDy=0;" edge="1" parent="1" source="TqRLrZdrlxEsfHvl0GsB-33" target="TqRLrZdrlxEsfHvl0GsB-67">
          <mxGeometry relative="1" as="geometry" />
        </mxCell>
        <mxCell id="TqRLrZdrlxEsfHvl0GsB-33" value="SANPHAM" style="rounded=0;whiteSpace=wrap;html=1;" vertex="1" parent="1">
          <mxGeometry x="206" y="280" width="120" height="60" as="geometry" />
        </mxCell>
        <mxCell id="TqRLrZdrlxEsfHvl0GsB-51" style="edgeStyle=orthogonalEdgeStyle;rounded=0;orthogonalLoop=1;jettySize=auto;html=1;exitX=0.5;exitY=1;exitDx=0;exitDy=0;" edge="1" parent="1" source="TqRLrZdrlxEsfHvl0GsB-34" target="TqRLrZdrlxEsfHvl0GsB-35">
          <mxGeometry relative="1" as="geometry" />
        </mxCell>
        <mxCell id="TqRLrZdrlxEsfHvl0GsB-34" value="THUOC" style="rhombus;whiteSpace=wrap;html=1;" vertex="1" parent="1">
          <mxGeometry x="206" y="400" width="120" height="60" as="geometry" />
        </mxCell>
        <mxCell id="TqRLrZdrlxEsfHvl0GsB-35" value="KIEUSP" style="rounded=0;whiteSpace=wrap;html=1;" vertex="1" parent="1">
          <mxGeometry x="206" y="510" width="120" height="60" as="geometry" />
        </mxCell>
        <mxCell id="TqRLrZdrlxEsfHvl0GsB-45" style="edgeStyle=orthogonalEdgeStyle;rounded=0;orthogonalLoop=1;jettySize=auto;html=1;exitX=0;exitY=0.5;exitDx=0;exitDy=0;entryX=1;entryY=0.5;entryDx=0;entryDy=0;" edge="1" parent="1" source="TqRLrZdrlxEsfHvl0GsB-37" target="TqRLrZdrlxEsfHvl0GsB-39">
          <mxGeometry relative="1" as="geometry" />
        </mxCell>
        <mxCell id="TqRLrZdrlxEsfHvl0GsB-54" style="edgeStyle=orthogonalEdgeStyle;rounded=0;orthogonalLoop=1;jettySize=auto;html=1;exitX=1;exitY=0.5;exitDx=0;exitDy=0;entryX=0;entryY=0.5;entryDx=0;entryDy=0;" edge="1" parent="1" source="TqRLrZdrlxEsfHvl0GsB-37" target="TqRLrZdrlxEsfHvl0GsB-52">
          <mxGeometry relative="1" as="geometry" />
        </mxCell>
        <mxCell id="TqRLrZdrlxEsfHvl0GsB-80" style="edgeStyle=orthogonalEdgeStyle;rounded=0;orthogonalLoop=1;jettySize=auto;html=1;exitX=0.25;exitY=0;exitDx=0;exitDy=0;entryX=0.5;entryY=1;entryDx=0;entryDy=0;" edge="1" parent="1" source="TqRLrZdrlxEsfHvl0GsB-37" target="TqRLrZdrlxEsfHvl0GsB-79">
          <mxGeometry relative="1" as="geometry" />
        </mxCell>
        <mxCell id="TqRLrZdrlxEsfHvl0GsB-82" style="edgeStyle=orthogonalEdgeStyle;rounded=0;orthogonalLoop=1;jettySize=auto;html=1;exitX=0.75;exitY=0;exitDx=0;exitDy=0;entryX=0.5;entryY=1;entryDx=0;entryDy=0;" edge="1" parent="1" source="TqRLrZdrlxEsfHvl0GsB-37" target="TqRLrZdrlxEsfHvl0GsB-81">
          <mxGeometry relative="1" as="geometry" />
        </mxCell>
        <mxCell id="TqRLrZdrlxEsfHvl0GsB-37" value="PHIEUNHAP" style="rounded=0;whiteSpace=wrap;html=1;" vertex="1" parent="1">
          <mxGeometry x="606" y="170" width="120" height="60" as="geometry" />
        </mxCell>
        <mxCell id="TqRLrZdrlxEsfHvl0GsB-44" style="edgeStyle=orthogonalEdgeStyle;rounded=0;orthogonalLoop=1;jettySize=auto;html=1;exitX=0;exitY=0.5;exitDx=0;exitDy=0;" edge="1" parent="1" source="TqRLrZdrlxEsfHvl0GsB-38" target="TqRLrZdrlxEsfHvl0GsB-40">
          <mxGeometry relative="1" as="geometry" />
        </mxCell>
        <mxCell id="TqRLrZdrlxEsfHvl0GsB-56" style="edgeStyle=orthogonalEdgeStyle;rounded=0;orthogonalLoop=1;jettySize=auto;html=1;exitX=1;exitY=0.5;exitDx=0;exitDy=0;entryX=0;entryY=0.5;entryDx=0;entryDy=0;" edge="1" parent="1" source="TqRLrZdrlxEsfHvl0GsB-38" target="TqRLrZdrlxEsfHvl0GsB-53">
          <mxGeometry relative="1" as="geometry" />
        </mxCell>
        <mxCell id="TqRLrZdrlxEsfHvl0GsB-85" style="edgeStyle=orthogonalEdgeStyle;rounded=0;orthogonalLoop=1;jettySize=auto;html=1;exitX=0.25;exitY=1;exitDx=0;exitDy=0;" edge="1" parent="1" source="TqRLrZdrlxEsfHvl0GsB-38" target="TqRLrZdrlxEsfHvl0GsB-83">
          <mxGeometry relative="1" as="geometry" />
        </mxCell>
        <mxCell id="TqRLrZdrlxEsfHvl0GsB-86" style="edgeStyle=orthogonalEdgeStyle;rounded=0;orthogonalLoop=1;jettySize=auto;html=1;exitX=0.75;exitY=1;exitDx=0;exitDy=0;" edge="1" parent="1" source="TqRLrZdrlxEsfHvl0GsB-38" target="TqRLrZdrlxEsfHvl0GsB-84">
          <mxGeometry relative="1" as="geometry" />
        </mxCell>
        <mxCell id="TqRLrZdrlxEsfHvl0GsB-38" value="PHIEUBAN" style="rounded=0;whiteSpace=wrap;html=1;" vertex="1" parent="1">
          <mxGeometry x="606" y="360" width="120" height="60" as="geometry" />
        </mxCell>
        <mxCell id="TqRLrZdrlxEsfHvl0GsB-46" style="edgeStyle=orthogonalEdgeStyle;rounded=0;orthogonalLoop=1;jettySize=auto;html=1;exitX=0;exitY=0.5;exitDx=0;exitDy=0;entryX=1;entryY=0.25;entryDx=0;entryDy=0;" edge="1" parent="1" source="TqRLrZdrlxEsfHvl0GsB-39" target="TqRLrZdrlxEsfHvl0GsB-33">
          <mxGeometry relative="1" as="geometry" />
        </mxCell>
        <mxCell id="TqRLrZdrlxEsfHvl0GsB-76" style="edgeStyle=orthogonalEdgeStyle;rounded=0;orthogonalLoop=1;jettySize=auto;html=1;exitX=0.5;exitY=0;exitDx=0;exitDy=0;entryX=0.5;entryY=1;entryDx=0;entryDy=0;" edge="1" parent="1" source="TqRLrZdrlxEsfHvl0GsB-39" target="TqRLrZdrlxEsfHvl0GsB-69">
          <mxGeometry relative="1" as="geometry" />
        </mxCell>
        <mxCell id="TqRLrZdrlxEsfHvl0GsB-39" value="CHUA" style="rhombus;whiteSpace=wrap;html=1;" vertex="1" parent="1">
          <mxGeometry x="406" y="210" width="120" height="60" as="geometry" />
        </mxCell>
        <mxCell id="TqRLrZdrlxEsfHvl0GsB-47" style="edgeStyle=orthogonalEdgeStyle;rounded=0;orthogonalLoop=1;jettySize=auto;html=1;exitX=0;exitY=0.5;exitDx=0;exitDy=0;entryX=1;entryY=0.65;entryDx=0;entryDy=0;entryPerimeter=0;" edge="1" parent="1" source="TqRLrZdrlxEsfHvl0GsB-40" target="TqRLrZdrlxEsfHvl0GsB-33">
          <mxGeometry relative="1" as="geometry" />
        </mxCell>
        <mxCell id="TqRLrZdrlxEsfHvl0GsB-78" style="edgeStyle=orthogonalEdgeStyle;rounded=0;orthogonalLoop=1;jettySize=auto;html=1;exitX=0.5;exitY=1;exitDx=0;exitDy=0;entryX=0.5;entryY=0;entryDx=0;entryDy=0;" edge="1" parent="1" source="TqRLrZdrlxEsfHvl0GsB-40" target="TqRLrZdrlxEsfHvl0GsB-77">
          <mxGeometry relative="1" as="geometry" />
        </mxCell>
        <mxCell id="TqRLrZdrlxEsfHvl0GsB-40" value="CHUA" style="rhombus;whiteSpace=wrap;html=1;" vertex="1" parent="1">
          <mxGeometry x="406" y="330" width="120" height="60" as="geometry" />
        </mxCell>
        <mxCell id="TqRLrZdrlxEsfHvl0GsB-41" value="DAILY" style="rounded=0;whiteSpace=wrap;html=1;" vertex="1" parent="1">
          <mxGeometry x="976" y="170" width="120" height="60" as="geometry" />
        </mxCell>
        <mxCell id="TqRLrZdrlxEsfHvl0GsB-42" value="KHACHHANG" style="rounded=0;whiteSpace=wrap;html=1;" vertex="1" parent="1">
          <mxGeometry x="976" y="360" width="120" height="60" as="geometry" />
        </mxCell>
        <mxCell id="TqRLrZdrlxEsfHvl0GsB-55" style="edgeStyle=orthogonalEdgeStyle;rounded=0;orthogonalLoop=1;jettySize=auto;html=1;exitX=1;exitY=0.5;exitDx=0;exitDy=0;entryX=0;entryY=0.5;entryDx=0;entryDy=0;" edge="1" parent="1" source="TqRLrZdrlxEsfHvl0GsB-52" target="TqRLrZdrlxEsfHvl0GsB-41">
          <mxGeometry relative="1" as="geometry" />
        </mxCell>
        <mxCell id="TqRLrZdrlxEsfHvl0GsB-52" value="Relationship" style="rhombus;whiteSpace=wrap;html=1;" vertex="1" parent="1">
          <mxGeometry x="796" y="170" width="120" height="60" as="geometry" />
        </mxCell>
        <mxCell id="TqRLrZdrlxEsfHvl0GsB-57" style="edgeStyle=orthogonalEdgeStyle;rounded=0;orthogonalLoop=1;jettySize=auto;html=1;exitX=1;exitY=0.5;exitDx=0;exitDy=0;entryX=0;entryY=0.5;entryDx=0;entryDy=0;" edge="1" parent="1" source="TqRLrZdrlxEsfHvl0GsB-53" target="TqRLrZdrlxEsfHvl0GsB-42">
          <mxGeometry relative="1" as="geometry" />
        </mxCell>
        <mxCell id="TqRLrZdrlxEsfHvl0GsB-53" value="Relationship" style="rhombus;whiteSpace=wrap;html=1;" vertex="1" parent="1">
          <mxGeometry x="796" y="360" width="120" height="60" as="geometry" />
        </mxCell>
        <mxCell id="TqRLrZdrlxEsfHvl0GsB-58" value="SOLUONG" style="ellipse;whiteSpace=wrap;html=1;" vertex="1" parent="1">
          <mxGeometry x="40" y="120" width="110" height="50" as="geometry" />
        </mxCell>
        <mxCell id="TqRLrZdrlxEsfHvl0GsB-60" value="MASP" style="ellipse;whiteSpace=wrap;html=1;" vertex="1" parent="1">
          <mxGeometry x="30" y="210" width="110" height="50" as="geometry" />
        </mxCell>
        <mxCell id="TqRLrZdrlxEsfHvl0GsB-61" value="TENSP" style="ellipse;whiteSpace=wrap;html=1;" vertex="1" parent="1">
          <mxGeometry x="30" y="270" width="110" height="50" as="geometry" />
        </mxCell>
        <mxCell id="TqRLrZdrlxEsfHvl0GsB-64" value="HANGSX" style="ellipse;whiteSpace=wrap;html=1;" vertex="1" parent="1">
          <mxGeometry x="30" y="330" width="110" height="50" as="geometry" />
        </mxCell>
        <mxCell id="TqRLrZdrlxEsfHvl0GsB-67" value="GIABAN" style="ellipse;whiteSpace=wrap;html=1;" vertex="1" parent="1">
          <mxGeometry x="30" y="390" width="110" height="50" as="geometry" />
        </mxCell>
        <mxCell id="TqRLrZdrlxEsfHvl0GsB-69" value="SOLUONG" style="ellipse;whiteSpace=wrap;html=1;" vertex="1" parent="1">
          <mxGeometry x="411" y="110" width="110" height="50" as="geometry" />
        </mxCell>
        <mxCell id="TqRLrZdrlxEsfHvl0GsB-77" value="SOLUONG" style="ellipse;whiteSpace=wrap;html=1;" vertex="1" parent="1">
          <mxGeometry x="411" y="450" width="110" height="50" as="geometry" />
        </mxCell>
        <mxCell id="TqRLrZdrlxEsfHvl0GsB-79" value="MAPHIEU" style="ellipse;whiteSpace=wrap;html=1;" vertex="1" parent="1">
          <mxGeometry x="540" y="60" width="110" height="50" as="geometry" />
        </mxCell>
        <mxCell id="TqRLrZdrlxEsfHvl0GsB-81" value="NGAYNHAP" style="ellipse;whiteSpace=wrap;html=1;" vertex="1" parent="1">
          <mxGeometry x="680" y="60" width="110" height="50" as="geometry" />
        </mxCell>
        <mxCell id="TqRLrZdrlxEsfHvl0GsB-83" value="MAPHIEU" style="ellipse;whiteSpace=wrap;html=1;" vertex="1" parent="1">
          <mxGeometry x="546" y="470" width="110" height="50" as="geometry" />
        </mxCell>
        <mxCell id="TqRLrZdrlxEsfHvl0GsB-84" value="NGAYBAN" style="ellipse;whiteSpace=wrap;html=1;" vertex="1" parent="1">
          <mxGeometry x="686" y="470" width="110" height="50" as="geometry" />
        </mxCell>
      </root>
    </mxGraphModel>
  </diagram>
</mxfile>
